<?xml version="1.0" encoding="UTF-8" standalone="no"?><!DOCTYPE svg PUBLIC "-//W3C//DTD SVG 1.1//EN" "http://www.w3.org/Graphics/SVG/1.1/DTD/svg11.dtd"><svg width="100%" height="100%" viewBox="0 0 640 480" version="1.1" xmlns="http://www.w3.org/2000/svg" xmlns:xlink="http://www.w3.org/1999/xlink" xml:space="preserve" xmlns:serif="http://www.serif.com/" style="fill-rule:evenodd;clip-rule:evenodd;stroke-linejoin:round;stroke-miterlimit:2;"><g transform="matrix(0.8,0,0,0.8,-40,0)"><rect x="0" y="0" width="899.963" height="600" style="fill:white;fill-rule:nonzero;"/></g><g transform="matrix(0.8,0,0,0.8,-40,0)"><g><path d="M686.676,277.504C686.676,210.712 635.303,155.935 569.889,150.589C552.279,101.366 505.219,66.186 449.989,66.186C394.732,66.186 347.714,101.367 330.103,150.589C264.688,155.935 213.289,210.712 213.289,277.504C213.289,316.721 231.065,351.819 258.984,375.163C256.448,385.154 255.111,395.655 255.111,406.43C255.111,476.764 312.12,533.786 382.467,533.786C407.272,533.786 430.422,526.703 449.989,514.426C469.557,526.703 492.68,533.786 517.525,533.786C587.845,533.786 644.869,476.764 644.869,406.43C644.869,395.656 643.53,385.155 640.995,375.163C668.901,351.819 686.676,316.722 686.676,277.504Z" style="fill:white;"/><path d="M451.725,190.979C419.191,190.979 392.802,217.381 392.802,249.889C392.802,282.451 419.191,308.841 451.725,308.841C484.288,308.841 510.677,282.451 510.677,249.889C510.677,217.381 484.288,190.979 451.725,190.979ZM451.711,278.318C436.029,278.318 423.311,265.611 423.311,249.888C423.311,234.22 436.03,221.473 451.711,221.473C467.421,221.473 480.153,234.219 480.153,249.888C480.154,265.611 467.421,278.318 451.711,278.318Z" style="fill:rgb(0,50,131);"/><path d="M686.676,277.504C686.676,210.712 635.303,155.935 569.889,150.589C552.279,101.366 505.219,66.186 449.989,66.186C394.732,66.186 347.714,101.367 330.103,150.589C264.688,155.935 213.289,210.712 213.289,277.504C213.289,316.721 231.065,351.819 258.984,375.163C256.448,385.154 255.111,395.655 255.111,406.43C255.111,476.764 312.12,533.786 382.467,533.786C407.272,533.786 430.422,526.703 449.989,514.426C469.557,526.703 492.68,533.786 517.525,533.786C587.845,533.786 644.869,476.764 644.869,406.43C644.869,395.656 643.53,385.155 640.995,375.163C668.901,351.819 686.676,316.722 686.676,277.504ZM618.727,363.368C624.364,376.321 627.477,390.583 627.477,405.602C627.477,464.223 579.977,511.71 521.371,511.71C494.968,511.71 470.784,502.05 452.222,486.093C433.647,502.05 409.49,511.71 383.074,511.71C324.453,511.71 276.967,464.223 276.967,405.602C276.967,391.231 279.847,377.533 285.015,365.008C255.084,346.224 235.158,312.973 235.158,275.036C235.158,216.429 282.644,168.929 341.252,168.929C343.457,168.929 345.606,168.971 347.756,169.15C359.385,123.165 401.029,89.143 450.61,89.143C500.176,89.143 541.82,123.165 553.45,169.15C555.599,168.971 557.792,168.929 559.955,168.929C618.562,168.929 666.061,216.429 666.061,275.036C666.061,311.857 647.238,344.337 618.727,363.368Z" style="fill:rgb(0,50,131);"/><path d="M651.797,277.752C651.797,224.05 608.309,180.561 554.607,180.561C551.547,180.561 548.448,180.74 545.43,180.988C535.742,137.54 496.951,105.115 450.61,105.115C404.254,105.115 365.476,137.54 355.802,180.988C352.798,180.74 349.739,180.561 346.68,180.561C292.978,180.561 249.488,224.05 249.488,277.752C249.488,313.664 268.987,345.025 298.021,361.853C292.868,373.703 290.002,386.699 290.002,400.436C290.002,454.137 333.547,497.627 387.207,497.627C412.177,497.627 434.955,488.188 452.18,472.727C469.392,488.188 492.169,497.627 517.14,497.627C570.799,497.627 614.29,454.137 614.29,400.436C614.29,386.188 611.23,372.628 605.676,360.392C633.375,343.29 651.797,312.685 651.797,277.752ZM589.182,354.273C597.974,367.708 603.099,383.735 603.099,400.96C603.099,448.088 564.901,486.285 517.787,486.285C491.177,486.285 467.475,474.145 451.822,455.116C436.167,474.145 412.438,486.285 385.87,486.285C338.715,486.285 300.516,448.088 300.516,400.96C300.516,384.244 305.339,368.618 313.648,355.444C283.111,342.476 261.669,312.16 261.669,276.897C261.669,229.742 299.867,191.543 347.023,191.543C353.734,191.543 360.308,192.355 366.618,193.831C371.056,150.892 407.352,117.392 451.476,117.392C495.393,117.392 531.565,150.589 536.264,193.265C541.777,192.149 547.453,191.543 553.269,191.543C600.382,191.543 638.582,229.741 638.582,276.897C638.583,311.169 618.381,340.714 589.182,354.273Z" style="fill:rgb(228,31,32);"/><g><path d="M444.684,217.464L459.498,217.464L452.442,194.906L444.684,217.464Z" style="fill:white;"/><path d="M429.402,225.346L442.231,217.946L424.813,201.878L429.402,225.346Z" style="fill:white;"/><path d="M420.1,239.815L427.514,226.945L404.432,221.776L420.1,239.815Z" style="fill:white;"/><path d="M419.288,256.958L419.288,242.144L396.716,249.199L419.288,256.958Z" style="fill:white;"/><path d="M427.169,272.239L419.755,259.41L403.743,276.814L427.169,272.239Z" style="fill:white;"/><path d="M441.611,281.542L428.795,274.141L423.586,297.223L441.611,281.542Z" style="fill:white;"/><path d="M458.767,282.369L443.954,282.369L451.023,304.927L458.767,282.369Z" style="fill:white;"/><path d="M474.078,274.485L461.22,281.886L478.653,297.912L474.078,274.485Z" style="fill:white;"/><path d="M483.337,260.017L475.951,272.846L499.06,278.014L483.337,260.017Z" style="fill:white;"/><path d="M484.164,242.874L484.164,257.688L506.763,250.633L484.164,242.874Z" style="fill:white;"/><path d="M476.323,227.592L483.723,240.422L499.75,223.017L476.323,227.592Z" style="fill:white;"/><path d="M461.854,218.291L474.683,225.69L479.85,202.608L461.854,218.291Z" style="fill:white;"/></g></g><path d="M409.544,366.854C409.544,346.1 392.76,329.302 371.993,329.302C351.24,329.302 334.443,346.1 334.443,366.854C334.443,387.606 351.24,404.405 371.993,404.405C373.124,404.405 374.198,404.363 375.273,404.28C375.19,403.289 375.149,402.296 375.149,401.304C375.149,400.188 375.19,399.058 375.273,397.983C374.198,398.122 373.124,398.162 371.993,398.162C354.727,398.162 340.7,384.163 340.7,366.854C340.7,349.586 354.727,335.545 371.993,335.545C389.314,335.545 403.302,349.586 403.302,366.854C403.302,380.757 394.262,392.512 381.737,396.604C381.516,398.122 381.392,399.706 381.392,401.304C381.392,401.95 381.433,402.598 381.446,403.192C397.625,399.017 409.544,384.341 409.544,366.854Z" style="fill:rgb(0,131,206);fill-rule:nonzero;"/><path d="M572.301,366.854C572.301,387.606 555.517,404.405 534.75,404.405C515.114,404.405 499.02,389.37 497.337,370.161C499.569,370.382 501.72,370.85 503.787,371.54C506.074,386.615 519.082,398.162 534.75,398.162C552.072,398.162 566.059,384.163 566.059,366.854C566.059,349.586 552.073,335.545 534.75,335.545C518.132,335.545 504.53,348.553 503.537,364.909C501.513,364.4 499.445,364.055 497.337,363.876C498.84,344.544 515.031,329.302 534.75,329.302C555.517,329.303 572.301,346.101 572.301,366.854Z" style="fill:rgb(230,20,70);fill-rule:nonzero;"/><path d="M525.326,403.192C524.334,419.631 510.731,432.612 494.058,432.612C476.79,432.612 462.777,418.597 462.777,401.304C462.777,387.386 471.817,375.631 484.331,371.539C484.55,369.995 484.674,368.451 484.674,366.853C484.674,366.205 484.674,365.558 484.634,364.909C468.455,369.139 456.507,383.816 456.507,401.304C456.507,422.043 473.333,438.867 494.059,438.867C513.791,438.867 529.97,423.627 531.528,404.279C529.376,404.101 527.309,403.757 525.326,403.192ZM494.058,369.996C509.782,369.996 522.789,381.544 525.022,396.604C527.088,397.293 529.239,397.776 531.486,397.983C529.804,378.788 513.695,363.754 494.058,363.754C492.983,363.754 491.909,363.794 490.832,363.877C490.916,364.869 490.916,365.862 490.916,366.855C490.916,367.97 490.874,369.086 490.792,370.162C491.867,370.037 492.983,369.996 494.058,369.996Z" style="fill:rgb(0,156,69);fill-rule:nonzero;"/><path d="M450.14,404.28C448.611,423.628 432.42,438.868 412.7,438.868C391.934,438.868 375.15,422.044 375.15,401.305C375.15,383.818 387.069,369.141 403.247,364.91C403.289,365.559 403.303,366.206 403.303,366.854C403.303,368.452 403.179,369.996 402.959,371.54C390.433,375.632 381.393,387.387 381.393,401.305C381.393,418.598 395.408,432.613 412.701,432.613C429.32,432.613 442.948,419.633 443.941,403.235C445.938,403.757 448.006,404.101 450.14,404.28ZM409.421,370.161C409.504,369.086 409.545,367.97 409.545,366.854C409.545,365.862 409.545,364.869 409.449,363.876C410.523,363.793 411.598,363.753 412.7,363.753C432.337,363.753 448.432,378.787 450.114,397.982C447.882,397.775 445.718,397.293 443.651,396.603C441.391,381.542 428.409,369.995 412.7,369.995C411.598,369.996 410.496,370.037 409.421,370.161Z" style="fill:rgb(247,176,0);fill-rule:nonzero;"/><path d="M453.393,398.162C437.67,398.162 424.689,386.615 422.43,371.54C420.362,370.851 418.213,370.382 415.966,370.161C417.647,389.37 433.757,404.405 453.393,404.405C454.468,404.405 455.557,404.363 456.645,404.28C456.549,403.289 456.506,402.296 456.506,401.304C456.506,400.188 456.575,399.058 456.658,397.983C455.583,398.122 454.508,398.162 453.393,398.162ZM453.393,329.303C433.646,329.303 417.468,344.545 415.966,363.877C418.074,364.057 420.141,364.401 422.154,364.91C423.16,348.554 436.76,335.546 453.393,335.546C470.674,335.546 484.673,349.587 484.673,366.855C484.673,380.758 475.648,392.513 463.135,396.605C462.901,398.123 462.777,399.707 462.777,401.305C462.777,401.951 462.777,402.599 462.819,403.193C479.01,399.017 490.958,384.341 490.958,366.855C490.958,346.101 474.119,329.303 453.393,329.303Z" style="fill:rgb(0,0,6);fill-rule:nonzero;"/></g></svg>