<?xml version="1.0" encoding="UTF-8" standalone="no"?>
<!-- Created with Inkscape (http://www.inkscape.org/) -->

<svg
   width="100mm"
   height="100mm"
   viewBox="0 0 100 100"
   version="1.1"
   id="svg1"
   inkscape:version="1.4.2 (ebf0e94, 2025-05-08)"
   sodipodi:docname="arena_skate_logo_3_skater.svg"
   xmlns:inkscape="http://www.inkscape.org/namespaces/inkscape"
   xmlns:sodipodi="http://sodipodi.sourceforge.net/DTD/sodipodi-0.dtd"
   xmlns="http://www.w3.org/2000/svg"
   xmlns:svg="http://www.w3.org/2000/svg">
  <sodipodi:namedview
     id="namedview1"
     pagecolor="#ffffff"
     bordercolor="#999999"
     borderopacity="1"
     inkscape:showpageshadow="0"
     inkscape:pageopacity="0"
     inkscape:pagecheckerboard="0"
     inkscape:deskcolor="#d1d1d1"
     inkscape:document-units="mm"
     inkscape:zoom="0.78929574"
     inkscape:cx="396.55605"
     inkscape:cy="561.25984"
     inkscape:window-width="1920"
     inkscape:window-height="1130"
     inkscape:window-x="2187"
     inkscape:window-y="-6"
     inkscape:window-maximized="1"
     inkscape:current-layer="layer1" />
  <defs
     id="defs1" />
  <g
     inkscape:label="Ebene 1"
     inkscape:groupmode="layer"
     id="layer1">
    <g
       id="g1"
       transform="matrix(0.61158475,0,0,0.67885758,-29.582983,6.0257843)">
      <path
         style="fill:#f5a802;fill-opacity:1"
         d="m 177.73706,122.88089 c -0.0936,-0.15144 -0.40399,-0.20113 -0.68977,-0.11043 -0.28577,0.0907 -0.66819,0.0416 -0.84982,-0.10915 -0.3114,-0.25844 -0.5807,-0.29423 -2.35404,-0.31286 -0.55424,-0.006 -0.76533,-0.1672 -0.89511,-0.68428 -0.28611,-1.13998 0.0721,-5.18921 0.53506,-6.04855 0.47248,-0.87698 0.40821,-1.52142 -0.38935,-3.90366 -0.82283,-2.45773 -0.57196,-6.81197 0.39248,-6.81197 0.55267,0 1.48157,-1.52839 1.73224,-2.85019 0.13211,-0.69662 0.32107,-2.572733 0.4199,-4.169136 0.15814,-2.55439 0.11268,-3.09991 -0.37898,-4.54785 -0.79626,-2.34504 -0.72711,-3.48984 0.36409,-6.02762 0.18772,-0.43656 0.42449,-1.09141 0.52617,-1.45521 0.10167,-0.3638 0.59117,-1.76558 1.08776,-3.11506 0.4966,-1.34949 0.89656,-2.71871 0.88881,-3.04271 -0.0237,-0.99275 -2.62109,-3.85467 -4.36913,-4.81416 -1.64879,-0.90502 -3.11535,-2.53662 -4.11074,-4.57335 -0.64364,-1.31698 -1.35138,-1.59296 -2.67107,-1.04155 -0.98012,0.40952 -1.64761,1.03171 -6.03289,5.62351 -4.84196,5.07 -5.66665,6.05366 -6.61458,7.88968 -1.24279,2.40712 -2.34608,3.64832 -4.59653,5.17106 -2.43541,1.6479 -2.56887,1.81282 -3.81771,4.71803 -1.27612,2.96868 -1.71084,3.65789 -2.67836,4.24627 -2.48437,1.51084 -6.39047,5.249426 -6.9336,6.636256 -0.0918,0.2343 0.0117,0.62955 0.22979,0.87835 0.57964,0.66109 0.241,1.56528 -0.91337,2.43871 -0.92793,0.7021 -2.1923,2.30125 -2.1923,2.77277 0,0.33845 -2.23766,2.32472 -2.83116,2.51309 -0.30493,0.0968 -1.8465,1.01886 -3.4257,2.04907 -3.07273,2.00452 -5.74892,3.39949 -6.52243,3.39983 -0.65211,2.9e-4 -1.73319,0.58766 -3.69,2.00487 -0.91007,0.6591 -2.184,1.54925 -2.83095,1.97811 -1.16261,0.77067 -2.48103,1.01907 -2.78639,0.52499 -0.36685,-0.59357 2.61465,-4.04015 4.60514,-5.32349 0.57339,-0.36968 0.63579,-0.57934 0.58034,-1.94989 l -0.0621,-1.53567 2.26693,-2.17692 c 1.42714,-1.37047 2.90323,-2.49988 3.98451,-3.04872 1.86131,-0.94474 2.13821,-1.18363 2.28418,-1.97057 0.11479,-0.61883 2.0424,-1.99317 2.53204,-1.80528 0.18962,0.0728 0.73169,-0.16282 1.20461,-0.52353 0.47291,-0.36071 1.23325,-0.73785 1.68965,-0.83809 0.4564,-0.10024 1.01036,-0.38387 1.23101,-0.63028 0.41734,-0.46605 1.77035,-3.372366 1.77035,-3.802766 0,-0.1354 0.24092,-0.77504 0.53539,-1.42143 0.49649,-1.08987 1.12071,-2.63217 1.06532,-2.63217 -0.0132,0 0.16968,-0.65485 0.40637,-1.45521 0.87934,-2.97344 4.76465,-8.67415 6.2285,-9.13876 0.27167,-0.0862 0.80768,-0.69213 1.19114,-1.34646 0.5955,-1.01614 0.67385,-1.38696 0.53706,-2.54191 -0.11695,-0.98745 0.0184,-2.07137 0.50177,-4.01827 0.36406,-1.46633 0.76019,-2.90418 0.8803,-3.19522 0.64676,-1.56718 1.42403,-3.02728 2.11273,-3.96875 0.4258,-0.58209 1.31911,-1.89178 1.98513,-2.91042 0.66601,-1.01865 1.54881,-2.32833 1.96177,-2.91042 2.60337,-3.66953 2.74187,-3.90327 2.47244,-4.1727 -0.18344,-0.18344 -0.39127,-0.18839 -0.61827,-0.0147 -1.23877,0.94771 -6.24456,2.02846 -7.62091,1.64536 -0.3622,-0.10082 -1.51868,-0.19517 -2.56997,-0.20968 -1.82961,-0.0252 -1.92839,-0.0592 -2.30754,-0.79235 -0.58973,-1.14041 -0.77408,-2.76479 -0.43157,-3.80262 0.25215,-0.76401 2.29401,-3.7042 2.89083,-4.16265 0.0947,-0.0728 0.36771,-0.54901 0.60664,-1.05834 0.23893,-0.50932 1.78674,-2.36351 3.43958,-4.12041 1.65284,-1.75691 3.71332,-4.19769 4.57884,-5.42396 2.65409,-3.7603 4.75508,-5.57599 7.77302,-6.71746 1.06609,-0.40323 1.99794,-0.88841 2.07076,-1.07817 0.0728,-0.18977 -0.15982,-0.86844 -0.51697,-1.50816 -0.73449,-1.31559 -1.24553,-3.39693 -1.23836,-5.04351 0.005,-1.05157 1.41772,-4.98848 2.07676,-5.7857 0.16042,-0.19406 0.60171,-0.73979 0.98064,-1.21273 0.37893,-0.47294 0.83317,-0.8599 1.00941,-0.8599 0.17624,0 0.46424,-0.1438 0.64,-0.31956 0.17575,-0.17575 1.03833,-0.3386 1.91683,-0.36187 1.26196,-0.0334 1.73215,-0.16902 2.23978,-0.64592 l 0.64252,-0.60361 1.50414,0.5756 c 0.82728,0.31658 1.95892,0.95941 2.51477,1.4285 0.55584,0.4691 1.42151,1.18464 1.9237,1.5901 0.53841,0.4347 1.06557,1.19467 1.28471,1.85209 0.20439,0.61318 0.47898,1.10062 0.61019,1.0832 0.44306,-0.0589 1.12664,-1.54537 1.56712,-3.4079 0.59268,-2.50604 1.91337,-4.8647 3.76359,-6.72145 0.4936,-0.49534 1.07532,-1.2446 1.29273,-1.66501 0.54452,-1.05298 1.34677,-1.29716 3.25311,-0.99016 3.32441,0.53538 9.02308,2.85129 9.02308,3.66694 0,0.10355 0.46124,0.44751 1.02497,0.76434 l 1.02497,0.57607 0.67041,-0.52735 c 0.36872,-0.29003 0.79053,-0.52734 0.93735,-0.52734 0.14683,0 0.30664,-0.10064 0.35515,-0.22365 0.0485,-0.12301 0.41158,-0.30286 0.80684,-0.39967 0.59826,-0.14653 0.85995,-0.0207 1.56217,0.75096 0.46394,0.50984 0.97697,1.1957 1.14006,1.52415 0.1631,0.32844 0.56145,0.63522 0.88522,0.68172 0.4777,0.0686 0.58869,0.25568 0.58869,0.99218 0,1.0493 0.18249,1.09526 1.55944,0.39279 1.02207,-0.52142 1.61556,-0.37008 1.61556,0.41196 0,0.40842 -1.51087,1.69039 -1.99222,1.69039 -0.53065,0 -1.71194,0.57702 -1.71194,0.83622 0,0.12217 0.26789,0.22256 0.59531,0.22311 1.01385,0.002 2.3151,0.96558 2.3151,1.71491 0,0.56188 -0.1226,0.66535 -0.78839,0.66535 -0.43362,0 -1.26867,-0.19217 -1.85566,-0.42704 -0.587,-0.23487 -1.37747,-0.36774 -1.7566,-0.29526 -0.89431,0.17096 -3.54752,-1.20259 -4.00832,-2.07508 -0.18655,-0.35321 -0.4483,-0.64221 -0.58168,-0.64221 -0.13337,0 -0.55834,-0.29271 -0.94437,-0.65046 -0.81,-0.75069 -3.03392,-1.4662 -4.55717,-1.4662 -0.57711,0 -1.79195,-0.23726 -2.69966,-0.52723 -0.9077,-0.28998 -1.75665,-0.46154 -1.88655,-0.38126 -0.1299,0.0803 -0.23869,0.94261 -0.24176,1.91629 -0.004,1.19625 -0.21789,2.37091 -0.66031,3.62241 -0.44713,1.26485 -0.65509,2.41615 -0.65587,3.63111 -6.4e-4,0.97846 -0.22895,2.70487 -0.50736,3.83645 -0.87825,3.56956 -1.08312,4.87337 -1.34189,8.53973 -0.23894,3.38552 -1.38795,8.98986 -2.14805,10.47718 -0.15609,0.30543 -0.29198,1.09696 -0.30199,1.75897 -0.0147,0.97568 0.14,1.39556 0.81705,2.21695 0.45939,0.55731 0.83525,1.12027 0.83525,1.25101 0,0.13075 0.35719,0.94062 0.79375,1.79972 0.43656,0.85909 0.79375,1.91115 0.79375,2.33791 0,0.42675 0.22923,1.40545 0.50941,2.17489 0.28018,0.76945 0.7641,2.53009 1.07539,3.91253 0.31129,1.38245 0.67128,2.71054 0.79998,2.95132 0.1287,0.24077 0.26768,1.37187 0.30884,2.51354 0.0633,1.75543 -0.0211,2.25951 -0.54668,3.26639 -1.06565,2.04147 -1.40081,3.83665 -1.21026,6.4823 0.0943,1.30968 0.33889,2.9684 0.54346,3.68604 0.74613,2.61746 0.43191,5.01688 -1.19142,9.0979 -0.71276,1.79186 -2.90484,5.6046 -3.22229,5.6046 -0.13279,0 -0.24143,0.21431 -0.24143,0.47625 0,0.261933 -0.0998,0.589363 -0.22178,0.727603 -0.38448,0.43577 -1.58112,4.170363 -1.71797,5.361673 -0.0915,0.79618 -0.0262,1.18184 0.21571,1.27467 0.24726,0.0949 0.31202,0.52682 0.22554,1.50427 -0.0922,1.04221 0.01,1.62262 0.424,2.41929 0.29993,0.57648 0.54533,1.36557 0.54533,1.75354 0,0.38798 0.1786,0.85363 0.39688,1.03479 0.67934,0.5638 0.44273,1.23758 -0.82711,2.35534 l -1.22399,1.0774 -0.0958,2.01415 c -0.10026,2.10717 -0.4936,3.97943 -0.95405,4.54113 -0.32965,0.40215 -0.90734,0.43024 -1.13901,0.0554 z M 156.5311,52.596154 c 1.53597,-0.16268 1.54446,-0.16841 2.34036,-1.57867 0.43934,-0.77847 0.9065,-1.48196 1.03813,-1.56331 0.29245,-0.18075 0.31851,-1.35944 0.034,-1.53531 -0.11296,-0.0698 -0.91663,0.0355 -1.78594,0.234 -1.23528,0.28208 -1.72504,0.54644 -2.24201,1.2102 -0.3638,0.46709 -1.10794,1.35035 -1.65364,1.96279 -1.25202,1.40512 -1.28796,1.84186 -0.1323,1.60775 0.47295,-0.0958 1.5536,-0.24766 2.40145,-0.33745 z"
         id="path10" />
      <path
         style="fill:#ec6c23;fill-opacity:1"
         d="m 148.90861,121.54002 c -0.0936,-0.15144 -0.40399,-0.20113 -0.68977,-0.11043 -0.28578,0.0907 -0.6682,0.0416 -0.84982,-0.10915 -0.3114,-0.25844 -0.5807,-0.29423 -2.35404,-0.31286 -0.55424,-0.006 -0.76533,-0.1672 -0.89511,-0.68428 -0.28612,-1.13998 0.0721,-5.18921 0.53506,-6.04855 0.47248,-0.87698 0.4082,-1.52142 -0.38935,-3.90366 -0.82283,-2.45773 -0.57196,-6.81197 0.39248,-6.81197 0.55267,0 1.48157,-1.52839 1.73224,-2.85019 0.13211,-0.69662 0.32107,-2.57273 0.4199,-4.16913 0.15813,-2.55439 0.11268,-3.09991 -0.37898,-4.54785 -0.79626,-2.34504 -0.72711,-3.48984 0.36409,-6.02762 0.18772,-0.43656 0.42449,-1.09141 0.52617,-1.45521 0.10167,-0.3638 0.59117,-1.76558 1.08776,-3.11506 0.4966,-1.34949 0.89656,-2.71871 0.88881,-3.04271 -0.0237,-0.99275 -2.6211,-3.85467 -4.36914,-4.81416 -1.64878,-0.90502 -3.11534,-2.53662 -4.11073,-4.57335 -0.64364,-1.31698 -1.35139,-1.59296 -2.67107,-1.04155 -0.98013,0.40952 -1.64761,1.03171 -6.03289,5.62351 -4.84196,5.07 -5.66665,6.05366 -6.61458,7.88968 -1.24279,2.40712 -2.34609,3.64832 -4.59653,5.17106 -2.43542,1.6479 -2.56887,1.81282 -3.81771,4.71803 -1.27613,2.96868 -1.71084,3.65789 -2.67836,4.24627 -2.48437,1.51084 -6.39048,5.24942 -6.93361,6.63625 -0.0918,0.2343 0.0117,0.62955 0.2298,0.87835 0.57964,0.66109 0.24099,1.56528 -0.91337,2.43871 -0.92793,0.7021 -2.1923,2.30125 -2.1923,2.77277 0,0.33845 -2.23766,2.32472 -2.83116,2.51309 -0.30493,0.0968 -1.846499,1.01886 -3.425698,2.04907 -3.072729,2.00452 -5.748922,3.39949 -6.522431,3.39983 -0.652107,2.9e-4 -1.733187,0.58766 -3.690004,2.00487 -0.910068,0.6591 -2.183995,1.54925 -2.830949,1.97811 -1.162606,0.77067 -2.481027,1.01907 -2.786388,0.52499 -0.366846,-0.59357 2.614656,-4.04015 4.605138,-5.32349 0.573389,-0.36968 0.63579,-0.57934 0.580341,-1.94989 l -0.06213,-1.53567 2.266935,-2.17692 c 1.427136,-1.37047 2.903221,-2.49988 3.984509,-3.04872 1.861301,-0.94474 2.138204,-1.18363 2.284177,-1.97057 0.114788,-0.61883 2.0424,-1.99317 2.532036,-1.80528 0.189623,0.0728 0.731695,-0.16282 1.204605,-0.52353 0.472919,-0.36071 1.233259,-0.73785 1.689659,-0.83809 0.4564,-0.10024 1.01035,-0.38387 1.23101,-0.63028 0.41734,-0.46605 1.77034,-3.37236 1.77034,-3.80276 0,-0.1354 0.24093,-0.77504 0.5354,-1.42143 0.49649,-1.08987 1.12071,-2.63217 1.06532,-2.63217 -0.0132,0 0.16968,-0.65485 0.40637,-1.45521 0.87934,-2.97344 4.76465,-8.67415 6.2285,-9.13876 0.27166,-0.0862 0.80768,-0.69213 1.19114,-1.34646 0.5955,-1.01614 0.67385,-1.38696 0.53706,-2.54191 -0.11695,-0.98745 0.0184,-2.07137 0.50177,-4.01827 0.36405,-1.46633 0.76019,-2.90418 0.8803,-3.19522 0.64676,-1.56718 1.42403,-3.02728 2.11273,-3.96875 0.4258,-0.58209 1.31911,-1.89178 1.98512,-2.91042 0.66602,-1.01865 1.54882,-2.32833 1.96178,-2.91042 2.60337,-3.66953 2.74187,-3.90327 2.47244,-4.1727 -0.18344,-0.18344 -0.39128,-0.18839 -0.61827,-0.0147 -1.23877,0.94771 -6.24456,2.02846 -7.62092,1.64536 -0.36219,-0.10082 -1.51867,-0.19517 -2.56996,-0.20968 -1.82961,-0.0252 -1.92839,-0.0592 -2.30754,-0.79235 -0.58973,-1.14041 -0.77408,-2.76479 -0.43157,-3.80262 0.25215,-0.76401 2.29401,-3.7042 2.89083,-4.16265 0.0947,-0.0728 0.3677,-0.54901 0.60664,-1.05834 0.23893,-0.50932 1.78674,-2.36351 3.43958,-4.12041 1.65284,-1.75691 3.71332,-4.19769 4.57884,-5.42396 2.65409,-3.7603 4.75508,-5.57599 7.77301,-6.71746 1.0661,-0.40323 1.99795,-0.88841 2.07077,-1.07817 0.0728,-0.18977 -0.15982,-0.86844 -0.51697,-1.50816 -0.73449,-1.31559 -1.24553,-3.39693 -1.23836,-5.04351 0.005,-1.05157 1.41772,-4.98848 2.07676,-5.7857 0.16042,-0.19406 0.60171,-0.73979 0.98064,-1.21273 0.37893,-0.47294 0.83317,-0.8599 1.00941,-0.8599 0.17624,0 0.46424,-0.1438 0.64,-0.31956 0.17575,-0.17575 1.03833,-0.3386 1.91683,-0.36187 1.26196,-0.0334 1.73215,-0.16902 2.23978,-0.64592 l 0.64252,-0.60361 1.50414,0.5756 c 0.82727,0.31658 1.95892,0.95941 2.51477,1.4285 0.55584,0.4691 1.42151,1.18464 1.9237,1.5901 0.53841,0.4347 1.06557,1.19467 1.28471,1.85209 0.20439,0.61318 0.47898,1.10062 0.61019,1.0832 0.44306,-0.0589 1.12664,-1.54537 1.56712,-3.4079 0.59268,-2.50604 1.91337,-4.8647 3.76359,-6.72145 0.49359,-0.49534 1.07532,-1.2446 1.29273,-1.66501 0.54451,-1.05298 1.34677,-1.29716 3.25311,-0.99016 3.32441,0.53538 9.02308,2.85129 9.02308,3.66694 0,0.10355 0.46123,0.44751 1.02497,0.76434 l 1.02497,0.57607 0.67041,-0.52735 c 0.36872,-0.29003 0.79053,-0.52734 0.93735,-0.52734 0.14682,0 0.30664,-0.10064 0.35515,-0.22365 0.0485,-0.12301 0.41158,-0.30286 0.80684,-0.39967 0.59826,-0.14653 0.85994,-0.0207 1.56217,0.75096 0.46394,0.50984 0.97697,1.1957 1.14006,1.52415 0.1631,0.32844 0.56145,0.63522 0.88522,0.68172 0.4777,0.0686 0.58869,0.25568 0.58869,0.99218 0,1.0493 0.18249,1.09526 1.55944,0.39279 1.02207,-0.52142 1.61556,-0.37008 1.61556,0.41196 0,0.40842 -1.51087,1.69039 -1.99222,1.69039 -0.53065,0 -1.71194,0.57702 -1.71194,0.83622 0,0.12217 0.26789,0.22256 0.59531,0.22311 1.01385,0.002 2.3151,0.96558 2.3151,1.71491 0,0.56188 -0.1226,0.66535 -0.78839,0.66535 -0.43362,0 -1.26867,-0.19217 -1.85566,-0.42704 -0.587,-0.23487 -1.37747,-0.36774 -1.7566,-0.29526 -0.89431,0.17096 -3.54752,-1.20259 -4.00832,-2.07508 -0.18655,-0.35321 -0.4483,-0.64221 -0.58168,-0.64221 -0.13338,0 -0.55834,-0.29271 -0.94437,-0.65046 -0.81,-0.75069 -3.03393,-1.4662 -4.55717,-1.4662 -0.57711,0 -1.79196,-0.23726 -2.69966,-0.52723 -0.9077,-0.28998 -1.75665,-0.46154 -1.88655,-0.38126 -0.1299,0.0803 -0.23869,0.94261 -0.24176,1.91629 -0.004,1.19625 -0.2179,2.37091 -0.66031,3.62241 -0.44713,1.26485 -0.65509,2.41615 -0.65588,3.63111 -6.3e-4,0.97846 -0.22894,2.70487 -0.50735,3.83645 -0.87825,3.56956 -1.08312,4.87337 -1.34189,8.53973 -0.23894,3.38552 -1.38796,8.98986 -2.14805,10.47718 -0.15609,0.30543 -0.29198,1.09696 -0.30199,1.75897 -0.0147,0.97568 0.14,1.39556 0.81705,2.21695 0.45939,0.55731 0.83525,1.12027 0.83525,1.25101 0,0.13075 0.35719,0.94062 0.79375,1.79972 0.43656,0.85909 0.79375,1.91115 0.79375,2.33791 0,0.42675 0.22923,1.40545 0.50941,2.17489 0.28018,0.76945 0.7641,2.53009 1.07539,3.91253 0.31129,1.38245 0.67128,2.71054 0.79998,2.95132 0.1287,0.24077 0.26768,1.37187 0.30884,2.51354 0.0633,1.75543 -0.0211,2.25951 -0.54668,3.26639 -1.06565,2.04147 -1.40082,3.83665 -1.21026,6.4823 0.0943,1.30968 0.33889,2.9684 0.54346,3.68604 0.74613,2.61746 0.43191,5.01688 -1.19142,9.0979 -0.71276,1.79186 -2.90484,5.6046 -3.2223,5.6046 -0.13278,0 -0.24142,0.21431 -0.24142,0.47625 0,0.26193 -0.0998,0.58936 -0.22178,0.7276 -0.38448,0.43577 -1.58112,4.17036 -1.71797,5.36167 -0.0915,0.79618 -0.0262,1.18184 0.21571,1.27467 0.24726,0.0949 0.31202,0.52682 0.22554,1.50427 -0.0922,1.04221 0.009,1.62262 0.424,2.41929 0.29993,0.57648 0.54533,1.36557 0.54533,1.75354 0,0.38798 0.1786,0.85363 0.39688,1.03479 0.67934,0.5638 0.44273,1.23758 -0.82712,2.35534 l -1.22398,1.0774 -0.0958,2.01415 c -0.10026,2.10717 -0.4936,3.97943 -0.95405,4.54113 -0.32965,0.40215 -0.90734,0.43024 -1.13901,0.0554 z M 127.70265,51.25529 c 1.53596,-0.16268 1.54445,-0.16841 2.34036,-1.57867 0.43934,-0.77847 0.9065,-1.48196 1.03813,-1.56331 0.29245,-0.18075 0.31851,-1.35944 0.034,-1.53531 -0.11296,-0.0698 -0.91663,0.0355 -1.78594,0.234 -1.23529,0.28208 -1.72505,0.54644 -2.24201,1.2102 -0.3638,0.46709 -1.10794,1.35035 -1.65365,1.96279 -1.25201,1.40512 -1.28795,1.84186 -0.13229,1.60775 0.47294,-0.0958 1.5536,-0.24766 2.40145,-0.33745 z"
         id="path9" />
      <path
         style="fill:#cd1666;fill-opacity:1"
         d="m 120.58299,120.8696 c -0.0936,-0.15144 -0.40399,-0.20113 -0.68977,-0.11043 -0.28577,0.0907 -0.66819,0.0416 -0.84982,-0.10915 -0.3114,-0.25844 -0.5807,-0.29423 -2.35404,-0.31286 -0.55424,-0.006 -0.76533,-0.1672 -0.89511,-0.68428 -0.28611,-1.13998 0.0721,-5.18921 0.53506,-6.04855 0.47248,-0.87698 0.40821,-1.52142 -0.38935,-3.90366 -0.82283,-2.45773 -0.57196,-6.81197 0.39248,-6.81197 0.55267,0 1.48157,-1.52839 1.73224,-2.85019 0.13211,-0.696624 0.32107,-2.572734 0.4199,-4.169134 0.15814,-2.55439 0.11268,-3.09991 -0.37898,-4.54785 -0.79626,-2.34504 -0.72711,-3.48984 0.36409,-6.02762 0.18772,-0.43656 0.42449,-1.09141 0.52617,-1.45521 0.10167,-0.3638 0.59117,-1.76558 1.08776,-3.11506 0.4966,-1.34949 0.89656,-2.71871 0.88881,-3.04271 -0.0237,-0.99275 -2.62109,-3.85467 -4.36913,-4.81416 -1.64879,-0.90502 -3.11535,-2.53662 -4.11074,-4.57335 -0.64364,-1.31698 -1.35139,-1.59296 -2.67107,-1.04155 -0.98013,0.40952 -1.64761,1.03171 -6.03289,5.62351 -4.841965,5.07 -5.666651,6.05366 -6.614582,7.88968 -1.242786,2.40712 -2.346085,3.64832 -4.596533,5.17106 -2.435412,1.6479 -2.568865,1.81282 -3.817707,4.71803 -1.276124,2.96868 -1.710843,3.65789 -2.678359,4.24627 -2.484374,1.51084 -6.390475,5.249424 -6.933605,6.636254 -0.09176,0.2343 0.01165,0.62955 0.229796,0.87835 0.579643,0.66109 0.240995,1.56528 -0.913373,2.43871 -0.927927,0.7021 -2.192301,2.30125 -2.192301,2.77277 0,0.33845 -2.237658,2.32472 -2.831155,2.51309 -0.304935,0.0968 -1.8465,1.01886 -3.425699,2.04907 -3.072729,2.00452 -5.748922,3.39949 -6.522431,3.39983 -0.652107,2.9e-4 -1.733187,0.58766 -3.690004,2.00487 -0.910068,0.6591 -2.183995,1.54925 -2.830949,1.97811 -1.162606,0.77067 -2.481027,1.01907 -2.786388,0.52499 -0.366846,-0.59357 2.614656,-4.04015 4.605138,-5.32349 0.573389,-0.36968 0.63579,-0.57934 0.580341,-1.94989 l -0.06213,-1.53567 2.266935,-2.17692 c 1.427136,-1.37047 2.903221,-2.49988 3.984509,-3.04872 1.861301,-0.94474 2.138204,-1.18363 2.284177,-1.97057 0.114788,-0.61883 2.0424,-1.99317 2.532036,-1.80528 0.189623,0.0728 0.731697,-0.16282 1.204609,-0.52353 0.472912,-0.36071 1.233258,-0.73785 1.689657,-0.83809 0.456398,-0.10024 1.010353,-0.38387 1.23101,-0.63028 0.417335,-0.466054 1.770343,-3.372364 1.770343,-3.802764 0,-0.1354 0.240926,-0.77504 0.535391,-1.42143 0.496493,-1.08987 1.120713,-2.63217 1.065326,-2.63217 -0.01319,0 0.169676,-0.65485 0.406369,-1.45521 0.87934,-2.97344 4.764647,-8.67415 6.228501,-9.13876 0.271662,-0.0862 0.807675,-0.69213 1.19114,-1.34646 0.595498,-1.01614 0.673845,-1.38696 0.537059,-2.54191 -0.11695,-0.98745 0.0184,-2.07137 0.501767,-4.01827 0.364055,-1.46633 0.760189,-2.90418 0.880299,-3.19522 0.646759,-1.56718 1.424031,-3.02728 2.112733,-3.96875 0.4258,-0.58209 1.319106,-1.89178 1.985123,-2.91042 0.666017,-1.01865 1.548817,-2.32833 1.961779,-2.91042 2.603366,-3.66953 2.741863,-3.90327 2.472437,-4.1727 -0.183443,-0.18344 -0.391275,-0.18839 -0.618274,-0.0147 -1.238769,0.94771 -6.244558,2.02846 -7.620912,1.64536 -0.362192,-0.10082 -1.518677,-0.19517 -2.569966,-0.20968 -1.829608,-0.0252 -1.928391,-0.0592 -2.307536,-0.79235 -0.58973,-1.14041 -0.774086,-2.76479 -0.431572,-3.80262 0.252147,-0.76401 2.29401,-3.7042 2.890826,-4.16265 0.09472,-0.0728 0.367708,-0.54901 0.606641,-1.05834 0.238934,-0.50932 1.786746,-2.36351 3.439584,-4.12041 1.652837,-1.75691 3.713315,-4.19769 4.57884,-5.42396 2.654089,-3.7603 4.755082,-5.57599 7.77301,-6.71746 1.0661,-0.40323 1.99794,-0.88841 2.07076,-1.07817 0.0728,-0.18977 -0.15981,-0.86844 -0.51696,-1.50816 -0.73449,-1.31559 -1.24553,-3.39693 -1.23836,-5.04351 0.005,-1.05157 1.41772,-4.98848 2.07676,-5.7857 0.16042,-0.19406 0.60171,-0.73979 0.98064,-1.21273 0.37893,-0.47294 0.83316,-0.8599 1.00941,-0.8599 0.17624,0 0.46424,-0.1438 0.63999,-0.31956 0.17576,-0.17575 1.03834,-0.3386 1.91683,-0.36187 1.26197,-0.0334 1.73216,-0.16902 2.23979,-0.64592 l 0.64252,-0.60361 1.50414,0.5756 c 0.82728,0.31658 1.95892,0.95941 2.51477,1.4285 0.55584,0.4691 1.42151,1.18464 1.9237,1.5901 0.53841,0.4347 1.06557,1.19467 1.28471,1.85209 0.20439,0.61318 0.47898,1.10062 0.61019,1.0832 0.44306,-0.0589 1.12664,-1.54537 1.56713,-3.4079 0.59267,-2.50604 1.91336,-4.8647 3.76358,-6.72145 0.4936,-0.49534 1.07533,-1.2446005 1.29273,-1.6650105 0.54452,-1.05298 1.34677,-1.29716 3.25311,-0.99016 3.32441,0.53538 9.02308,2.8512905 9.02308,3.6669405 0,0.10355 0.46124,0.44751 1.02497,0.76434 l 1.02497,0.57607 0.67041,-0.52735 c 0.36872,-0.29003 0.79053,-0.52734 0.93735,-0.52734 0.14683,0 0.30664,-0.10064 0.35515,-0.22365 0.0485,-0.12301 0.41158,-0.30286 0.80684,-0.39967 0.59826,-0.14653 0.85995,-0.0207 1.56217,0.75096 0.46394,0.50984 0.97697,1.1957 1.14006,1.52415 0.1631,0.32844 0.56145,0.63522 0.88522,0.68172 0.4777,0.0686 0.58869,0.25568 0.58869,0.99218 0,1.0493 0.18249,1.09526 1.55944,0.39279 1.02207,-0.52142 1.61556,-0.37008 1.61556,0.41196 0,0.40842 -1.51087,1.69039 -1.99222,1.69039 -0.53065,0 -1.71194,0.57702 -1.71194,0.83622 0,0.12217 0.26789,0.22256 0.59531,0.22311 1.01385,0.002 2.3151,0.96558 2.3151,1.71491 0,0.56188 -0.1226,0.66535 -0.78839,0.66535 -0.43362,0 -1.26867,-0.19217 -1.85566,-0.42704 -0.587,-0.23487 -1.37747,-0.36774 -1.7566,-0.29526 -0.89431,0.17096 -3.54752,-1.20259 -4.00832,-2.07508 -0.18655,-0.35321 -0.4483,-0.64221 -0.58168,-0.64221 -0.13337,0 -0.55834,-0.29271 -0.94437,-0.65046 -0.81,-0.75069 -3.03392,-1.4662 -4.55717,-1.4662 -0.57711,0 -1.79195,-0.23726 -2.69966,-0.52723 -0.9077,-0.28998 -1.75665,-0.46154 -1.88655,-0.38126 -0.1299,0.0803 -0.23869,0.94261 -0.24176,1.91629 -0.004,1.19625 -0.21789,2.37091 -0.66031,3.62241 -0.44713,1.26485 -0.65509,2.41615 -0.65587,3.63111 -6.4e-4,0.97846 -0.22895,2.70487 -0.50736,3.83645 -0.87825,3.56956 -1.08312,4.87337 -1.34189,8.53973 -0.23894,3.38552 -1.38795,8.98986 -2.14805,10.47718 -0.15609,0.30543 -0.29198,1.09696 -0.30199,1.75897 -0.0148,0.97568 0.14,1.39556 0.81705,2.21695 0.45939,0.55731 0.83525,1.12027 0.83525,1.25101 0,0.13075 0.35719,0.94062 0.79375,1.79972 0.43656,0.85909 0.79375,1.91115 0.79375,2.33791 0,0.42675 0.22924,1.40545 0.50941,2.17489 0.28018,0.76945 0.7641,2.53009 1.07539,3.91253 0.31129,1.38245 0.67128,2.71054 0.79998,2.95132 0.1287,0.24077 0.26768,1.37187 0.30884,2.51354 0.0633,1.75543 -0.0211,2.25951 -0.54668,3.26639 -1.06565,2.04147 -1.40081,3.83665 -1.21025,6.4823 0.0943,1.30968 0.33888,2.9684 0.54345,3.68604 0.74613,2.61746 0.43191,5.01688 -1.19142,9.0979 -0.71276,1.79186 -2.90484,5.6046 -3.22229,5.6046 -0.13279,0 -0.24143,0.21431 -0.24143,0.47625 0,0.26193 -0.0998,0.58936 -0.22177,0.7276 -0.38449,0.43577 -1.58112,4.170364 -1.71798,5.361674 -0.0915,0.79618 -0.0262,1.18184 0.21571,1.27467 0.24726,0.0949 0.31202,0.52682 0.22554,1.50427 -0.0922,1.04221 0.009,1.62262 0.424,2.41929 0.29994,0.57648 0.54533,1.36557 0.54533,1.75354 0,0.38798 0.1786,0.85363 0.39688,1.03479 0.67934,0.5638 0.44273,1.23758 -0.82711,2.35534 l -1.22399,1.0774 -0.0958,2.01415 c -0.10025,2.10717 -0.4936,3.97943 -0.95405,4.54113 -0.32965,0.40215 -0.90734,0.43024 -1.13901,0.0554 z M 99.377032,50.584866 c 1.535958,-0.16268 1.544448,-0.16841 2.340358,-1.57867 0.43934,-0.77847 0.9065,-1.48196 1.03813,-1.56331 0.29245,-0.18075 0.31851,-1.35944 0.0339,-1.53531 -0.11296,-0.0698 -0.91663,0.0355 -1.78594,0.234 -1.235287,0.28208 -1.725046,0.54644 -2.242011,1.2102 -0.363802,0.46709 -1.107943,1.35035 -1.653646,1.96279 -1.252017,1.40512 -1.287953,1.84186 -0.132292,1.60775 0.472943,-0.0958 1.553596,-0.24766 2.401451,-0.33745 z"
         id="path8" />
    </g>
  </g>
</svg>
