<?xml version="1.0" encoding="UTF-8" standalone="no"?>
<!-- Created with Inkscape (http://www.inkscape.org/) -->

<svg
   width="100mm"
   height="100mm"
   viewBox="0 0 100 100"
   version="1.1"
   id="svg1"
   inkscape:version="1.4.2 (ebf0e94, 2025-05-08)"
   sodipodi:docname="arena_skate_logo_1_skater.svg"
   xmlns:inkscape="http://www.inkscape.org/namespaces/inkscape"
   xmlns:sodipodi="http://sodipodi.sourceforge.net/DTD/sodipodi-0.dtd"
   xmlns="http://www.w3.org/2000/svg"
   xmlns:svg="http://www.w3.org/2000/svg">
  <sodipodi:namedview
     id="namedview1"
     pagecolor="#ffffff"
     bordercolor="#999999"
     borderopacity="1"
     inkscape:showpageshadow="0"
     inkscape:pageopacity="0"
     inkscape:pagecheckerboard="0"
     inkscape:deskcolor="#d1d1d1"
     inkscape:document-units="mm"
     inkscape:zoom="0.78929574"
     inkscape:cx="396.55605"
     inkscape:cy="561.25984"
     inkscape:window-width="1920"
     inkscape:window-height="1130"
     inkscape:window-x="2187"
     inkscape:window-y="-6"
     inkscape:window-maximized="1"
     inkscape:current-layer="layer1" />
  <defs
     id="defs1" />
  <g
     inkscape:label="Ebene 1"
     inkscape:groupmode="layer"
     id="layer1">
    <path
       style="fill:#cd1666;fill-opacity:1;stroke-width:0.773533"
       d="m 63.458679,93.682132 c -0.07376,-0.11499 -0.318355,-0.152719 -0.543557,-0.08385 -0.225203,0.06887 -0.52656,0.03159 -0.669681,-0.08288 -0.245391,-0.196235 -0.457616,-0.223411 -1.855047,-0.237556 -0.436756,-0.0046 -0.603101,-0.126957 -0.705371,-0.519579 -0.22547,-0.865593 0.05682,-3.940199 0.421642,-4.592701 0.372327,-0.665897 0.321673,-1.155223 -0.306819,-2.964073 -0.648411,-1.86617 -0.450719,-5.172375 0.309277,-5.172375 0.435519,0 1.167517,-1.160515 1.36506,-2.164166 0.104106,-0.528948 0.253004,-1.95349 0.330885,-3.165647 0.124618,-1.939563 0.0888,-2.35378 -0.298639,-3.45321 -0.627482,-1.780604 -0.57299,-2.649857 0.286913,-4.576809 0.147921,-0.331483 0.334509,-0.828715 0.414628,-1.10495 0.08013,-0.276236 0.465858,-1.340616 0.857192,-2.365285 0.391327,-1.024676 0.706514,-2.064333 0.700406,-2.310348 -0.01868,-0.753802 -2.065497,-2.926875 -3.442999,-3.655421 -1.299292,-0.687188 -2.454972,-1.926071 -3.239374,-3.472573 -0.507206,-0.999992 -1.064924,-1.209544 -2.104875,-0.790856 -0.772361,0.310951 -1.298361,0.783384 -4.754069,4.269966 -3.815602,3.849682 -4.465472,4.596582 -5.212475,5.990683 -0.979344,1.827741 -1.848774,2.770192 -3.622189,3.926418 -1.919169,1.251261 -2.024331,1.376485 -3.008459,3.582429 -1.005617,2.254137 -1.348188,2.777458 -2.110612,3.224219 -1.957758,1.14719 -5.035869,3.985918 -5.463871,5.038945 -0.07234,0.177906 0.0092,0.478022 0.181089,0.666938 0.456772,0.501969 0.189907,1.188529 -0.719768,1.85173 -0.731226,0.533109 -1.727592,1.747354 -1.727592,2.105381 0,0.256988 -1.763336,1.765175 -2.231022,1.908206 -0.240301,0.0735 -1.455091,0.773626 -2.699544,1.555871 -2.421394,1.522044 -4.530304,2.581253 -5.13985,2.581512 -0.51388,2.2e-4 -1.365801,0.446213 -2.907828,1.52231 -0.717155,0.500459 -1.721044,1.176355 -2.230861,1.501991 -0.916165,0.585174 -1.955116,0.773786 -2.195749,0.398628 -0.289084,-0.450701 2.060419,-3.067711 3.628973,-4.042159 0.451843,-0.2807 0.501017,-0.439896 0.457328,-1.480563 l -0.04893,-1.166044 1.786402,-1.652948 c 1.124625,-1.040607 2.287815,-1.898175 3.1399,-2.314913 1.466755,-0.717346 1.68496,-0.898737 1.799996,-1.496266 0.09045,-0.469881 1.609466,-1.513429 1.995308,-1.370763 0.149433,0.05528 0.576599,-0.12363 0.949265,-0.397519 0.372666,-0.27389 0.971842,-0.560254 1.331497,-0.636368 0.359656,-0.07611 0.796183,-0.291475 0.97007,-0.478575 0.328866,-0.353875 1.395075,-2.560654 1.395075,-2.887459 0,-0.10281 0.189859,-0.588493 0.421902,-1.079301 0.391255,-0.827545 0.883157,-1.998623 0.839508,-1.998623 -0.0104,0 0.133705,-0.497231 0.320231,-1.104949 0.692943,-2.257752 3.754664,-6.586336 4.908226,-6.939118 0.214075,-0.06545 0.636465,-0.525538 0.93865,-1.022375 0.46927,-0.771562 0.531004,-1.053127 0.423218,-1.930088 -0.09216,-0.749777 0.0145,-1.572804 0.3954,-3.051097 0.286889,-1.113394 0.59905,-2.205162 0.6937,-2.42615 0.509665,-1.18997 1.122174,-2.298633 1.664896,-3.013497 0.335542,-0.441984 1.039486,-1.43644 1.564328,-2.2099 0.524841,-0.773467 1.220511,-1.767916 1.545936,-2.209899 2.051517,-2.786297 2.160659,-2.963778 1.948348,-3.168358 -0.144563,-0.139287 -0.308338,-0.143045 -0.48722,-0.01116 -0.976185,0.719602 -4.920882,1.540222 -6.005483,1.249333 -0.285416,-0.07656 -1.196761,-0.148194 -2.025205,-0.159212 -1.441775,-0.01914 -1.519624,-0.04495 -1.818396,-0.601636 -0.464724,-0.86592 -0.610004,-2.099322 -0.340089,-2.887353 0.198693,-0.580117 1.807742,-2.812622 2.278044,-3.160726 0.07463,-0.05528 0.289765,-0.416867 0.478049,-0.803604 0.188291,-0.38673 1.408007,-1.794628 2.710489,-3.128652 1.302475,-1.334033 2.926188,-3.187332 3.60825,-4.118446 2.091494,-2.85522 3.74713,-4.233884 6.125341,-5.100609 0.840115,-0.306175 1.574427,-0.674575 1.631811,-0.818662 0.05737,-0.144093 -0.12594,-0.659411 -0.407383,-1.145154 -0.57879,-0.998936 -0.981504,-2.579311 -0.975853,-3.82957 0.0039,-0.798463 1.117201,-3.787783 1.636532,-4.393117 0.126423,-0.147351 0.474163,-0.561727 0.772778,-0.920833 0.298607,-0.359106 0.656553,-0.652928 0.795434,-0.652928 0.138882,0 0.365834,-0.109188 0.504338,-0.242644 0.138503,-0.133448 0.818232,-0.2571 1.510514,-0.274769 0.994457,-0.02536 1.36498,-0.128338 1.765014,-0.490451 l 0.506323,-0.458325 1.185295,0.437056 c 0.651919,0.240381 1.54369,0.728487 1.981706,1.084669 0.438025,0.356191 1.120196,0.899504 1.515936,1.207372 0.424281,0.330071 0.83969,0.907121 1.012378,1.406304 0.161072,0.465591 0.377449,0.835708 0.480854,0.822481 0.349143,-0.04472 0.887823,-1.173409 1.234933,-2.58764 0.467039,-1.902852 1.507787,-3.693796 2.965802,-5.103638 0.388971,-0.3761147 0.847389,-0.9450324 1.018714,-1.2642524 0.429089,-0.7995342 1.061291,-0.9849416 2.563539,-0.7518346 2.619716,0.4065174 7.110421,2.165002 7.110421,2.78433 0,0.07863 0.363469,0.339797 0.807704,0.580368 l 0.807704,0.437414 0.528301,-0.40042 c 0.290569,-0.220222 0.622967,-0.400413 0.738665,-0.400413 0.115698,0 0.241633,-0.07642 0.27986,-0.169819 0.03822,-0.0934 0.324344,-0.229963 0.635811,-0.303472 0.471453,-0.111261 0.677664,-0.01572 1.23104,0.570209 0.365597,0.387125 0.769871,0.907902 0.898391,1.157296 0.128526,0.249387 0.442437,0.482327 0.697577,0.517635 0.37644,0.05209 0.463904,0.194139 0.463904,0.753368 0,0.796739 0.143807,0.831638 1.22888,0.298248 0.805419,-0.395918 1.273105,-0.281004 1.273105,0.312803 0,0.310116 -1.190607,1.283523 -1.569924,1.283523 -0.418166,0 -1.349054,0.438135 -1.349054,0.634948 0,0.09276 0.211104,0.168991 0.46912,0.169409 0.798942,0.0015 1.824362,0.733171 1.824362,1.302141 0,0.426639 -0.09661,0.505204 -0.621273,0.505204 -0.341704,0 -0.999746,-0.145915 -1.46231,-0.324253 -0.462572,-0.178339 -1.085483,-0.279228 -1.384248,-0.224193 -0.704733,0.129811 -2.795534,-0.913134 -3.158657,-1.575621 -0.147006,-0.268194 -0.353279,-0.487635 -0.458387,-0.487635 -0.105099,0 -0.439986,-0.222255 -0.744181,-0.493897 -0.63831,-0.570004 -2.390818,-1.113295 -3.591173,-1.113295 -0.454778,0 -1.412112,-0.180153 -2.127404,-0.400329 -0.7153,-0.220184 -1.384288,-0.35045 -1.486652,-0.289493 -0.102365,0.06098 -0.188103,0.71573 -0.190522,1.455051 -0.0031,0.908319 -0.171703,1.800246 -0.520333,2.750518 -0.352359,0.960409 -0.516229,1.834597 -0.516852,2.757124 -4.96e-4,0.742951 -0.180419,2.053824 -0.399813,2.913041 -0.692077,2.710389 -0.853528,3.70038 -1.057438,6.48427 -0.188298,2.570645 -1.09375,6.826055 -1.692729,7.955386 -0.122995,0.231915 -0.230088,0.832929 -0.237976,1.335597 -0.01158,0.740839 0.110324,1.059657 0.643865,1.683343 0.362004,0.423169 0.658192,0.850629 0.658192,0.949901 0,0.09928 0.281475,0.714218 0.625496,1.366538 0.344029,0.652312 0.625497,1.451147 0.625497,1.775189 0,0.324034 0.180646,1.067168 0.401436,1.651408 0.220782,0.584248 0.602132,1.921112 0.847436,2.970808 0.245306,1.049703 0.528987,2.05813 0.630406,2.240955 0.10142,0.182819 0.210931,1.04167 0.243366,1.908547 0.04988,1.332908 -0.01663,1.71566 -0.43079,2.48019 -0.839769,1.550101 -1.103884,2.913192 -0.953717,4.922051 0.07431,0.994447 0.267054,2.253924 0.428261,2.798832 0.587962,1.987454 0.340356,3.809349 -0.938871,6.908093 -0.561675,1.36057 -2.2891,4.255607 -2.53926,4.255607 -0.104634,0 -0.190253,0.162726 -0.190253,0.36162 0,0.198884 -0.07865,0.447504 -0.174761,0.552471 -0.302988,0.330883 -1.245965,3.166579 -1.353814,4.071149 -0.07211,0.604547 -0.02064,0.897381 0.169993,0.967867 0.194847,0.07206 0.24588,0.400019 0.177724,1.142202 -0.07266,0.791357 0.0079,1.232065 0.334131,1.836982 0.236353,0.437724 0.429734,1.036886 0.429734,1.331474 0,0.294596 0.140734,0.648167 0.312745,0.785722 0.535338,0.428097 0.348891,0.939702 -0.651785,1.788424 l -0.964537,0.818077 -0.07549,1.529356 c -0.079,1.599987 -0.388961,3.021606 -0.751809,3.448108 -0.259781,0.305355 -0.715007,0.326684 -0.89757,0.04206 z M 46.747815,40.314499 c 1.210378,-0.123524 1.217068,-0.127875 1.844259,-1.198694 0.346212,-0.591097 0.714354,-1.125262 0.818082,-1.187031 0.230459,-0.137245 0.250995,-1.032231 0.02679,-1.165771 -0.08901,-0.053 -0.722329,0.02696 -1.407368,0.177678 -0.973442,0.214185 -1.359386,0.414915 -1.766765,0.918912 -0.286692,0.354665 -0.873094,1.02533 -1.30312,1.490359 -0.986626,1.066916 -1.01494,1.398535 -0.104248,1.220775 0.372689,-0.07274 1.22427,-0.18805 1.892407,-0.256228 z"
       id="path8" />
  </g>
</svg>
